<svg xmlns="http://www.w3.org/2000/svg" style="display: none;">
  
  <symbol id="twitter" viewBox="0 0 245.74377 162.30186">
    <title>twitter</title> 

     <path d="m74.956 181.01c-27.614 0-53.316-8.0947-74.956-21.968 3.8253 0.45148 7.7177 0.68244 11.665 0.68244 22.909 0 43.993-7.8175 60.728-20.932-21.397-0.39468-39.455-14.532-45.678-33.958 2.9855 0.57109 6.0486 0.87692 9.1997 0.87692 4.459 0 8.7792-0.59734 12.882-1.7146-22.369-4.499-39.224-24.262-39.224-47.954 0-0.20662 0.000659-0.41061 0.0032-0.61461 6.5932 3.6624 14.133 5.8619 22.148 6.1156-13.12-8.768-21.753-23.735-21.753-40.699 0-8.9619 2.4107-17.361 6.6197-24.583 24.118 29.583 60.148 49.05 100.79 51.089-0.83345-3.5787-1.2667-7.3108-1.2667-11.143 0-27.004 21.894-48.897 48.899-48.897 14.064 0 26.772 5.9386 35.692 15.442 11.138-2.1934 21.603-6.2629 31.05-11.867-3.651 11.419-11.404 21.001-21.5 27.053 9.8913-1.1821 19.315-3.8106 28.085-7.6996-6.5558 9.8059-14.847 18.418-24.4 25.312 0.0942 2.0966 0.14114 4.2055 0.14114 6.3257 0 64.616-49.183 139.12-139.12 139.12" fill="#6babe1"/>  
  </symbol>
  
  <symbol id="stackoverflow" viewBox="0 0 180.02404 229.51466">
    <title>stackoverflow</title> 

    <path
    d="m 128.03693,146.9184 -87.867598,-21.31093 4.261867,-17.57387 87.868261,21.31094 -4.26253,17.57386"
    style="fill:#bc8f41;fill-opacity:1;fill-rule:nonzero;stroke:none"
     />

    <path
    d="M 133.928,125.89454 53.415065,84.753337 61.643198,68.650671 142.156,109.79187 l -8.228,16.10267"
    style="fill:#d0831a;fill-opacity:1;fill-rule:nonzero;stroke:none"
     />

    <path
    d="M 146.32933,104.11587 78.239598,44.629338 90.136398,31.012005 158.22666,90.497337 146.32933,104.11587"
    style="fill:#f57b14;fill-opacity:1;fill-rule:nonzero;stroke:none"
     />

    <path
    d="M 165.06133,84.972004 114.28693,10.160005 129.24946,0.00533907 180.024,74.817337 165.06133,84.972004"
    style="fill:#f36717;fill-opacity:1;fill-rule:nonzero;stroke:none"
     />

    <path
    d="m 126.63026,168.89867 -90.281328,-4.9292 0.986534,-18.05733 90.280664,4.9308 -0.98587,18.05573"
    style="fill:#a18463;fill-opacity:1;fill-rule:nonzero;stroke:none"
     />

    <path
    d="m 145.34933,211.4336 0,-74.9152 18.06667,0 0.0133,93.0016 -163.42933,0 0.00364584,-93.08026 18.08275416,0 0,74.99386 127.26293,0"
    style="fill:#7b7c82;fill-opacity:1;fill-rule:nonzero;stroke:none"
     />

    <path
    d="m 36.098932,193.4216 91.029198,0 0,-18.0828 -91.029198,0 0,18.0828 z"
    style="fill:#7b7c82;fill-opacity:1;fill-rule:nonzero;stroke:none"
     />
  </symbol>
  
  <symbol id="slides" viewBox="0 0 494.43436 478.20081">
   <g transform="translate(-53.352 -61.178)">
    <rect transform="matrix(.9801 .1983 -.1983 .9801 65.697 -55.26)" height="405.81" width="405.8" y="97.399" x="105.79" fill="#512833"/>
    <rect transform="matrix(.9953 .0966 -.0966 .9953 30.339 -25.853)" height="405.8" width="405.8" y="97.399" x="79.178" fill="#934358"/>
    <rect height="405.8" width="405.8" y="97.4" x="53.352" fill="#e5637c"/>
   </g>
   <path fill="#fff" d="m139.97 314.84c0-2.399 1.499-6.008 4.508-10.819 3.003-4.808 5.709-7.213 8.115-7.213 0.236 0 2.164 1.144 5.771 3.427 3.606 2.287 8.774 4.569 15.508 6.852 6.729 2.288 14.844 3.427 24.345 3.427 9.496 0 17.312-2.706 23.443-8.115 6.132-5.41 9.198-12.741 9.198-22 0-9.254-2.706-16.467-8.116-21.641-5.411-5.167-16.174-10.036-32.28-14.606-16.111-4.564-27.771-10.396-34.984-17.492-7.212-7.089-10.82-17.854-10.82-32.28s5.528-26.508 16.59-36.246c11.056-9.738 25.484-14.607 43.279-14.607 12.263 0 23.202 1.565 32.822 4.688 9.614 3.129 14.425 6.617 14.425 10.46 0 3.127-1.386 7.157-4.146 12.082-2.768 4.931-5.229 7.394-7.394 7.394-0.243 0-1.804-0.722-4.688-2.165-8.178-4.329-17.375-6.492-27.591-6.492-10.223 0-18.157 2.108-23.804 6.312-5.653 4.209-8.476 9.681-8.476 16.41 0 6.734 2.102 12.025 6.312 15.869 4.204 3.85 11.361 7.338 21.459 10.459 22.597 6.977 37.926 14.606 45.984 22.902 8.054 8.296 12.083 20.801 12.083 37.509 0 16.716-5.951 30.476-17.854 41.297-11.902 10.819-26.148 16.229-42.738 16.229s-30.9-2.463-42.919-7.394c-12.024-4.925-18.032-9.677-18.032-14.247z"/>
  </symbol>

  <symbol id="linkedin" viewBox="0 0 359.98801 360">
    <title>linkedin</title> 

    <path d="m398.56 72.012h-4.18v8.4688h5.293c2.754 0 5.867-0.4532 5.867-4.0352 0-4.1015-3.14-4.4336-6.98-4.4336zm4.16-2.5195c4.226 0.5195 6.445 2.8516 6.445 6.7578 0 4.7656-2.898 7.0781-8.84 7.0781h-9.527v-25.066h3.582v10.918h4.434l0.086-0.1367 6.898-10.781h3.824l-7.383 11.164 0.481 0.0664" fill="#fff"/>
    <path d="m398.96 50.156c-11.348 0-20.254 8.9649-20.254 20.606 0 11.633 8.906 20.606 20.254 20.606 11.355 0 20.246-8.9727 20.246-20.606 0-11.641-8.891-20.606-20.246-20.606zm0 44.316c-13.313 0-23.738-10.41-23.738-23.711 0-13.312 10.425-23.711 23.738-23.711 13.293 0 23.723 10.398 23.723 23.711 0 13.301-10.43 23.711-23.723 23.711" fill="#fff"/>
    <path d="m333.36 0h-306.81c-14.644 0-26.55 11.621-26.55 25.957v308.06c0 14.34 11.906 25.98 26.551 25.98h306.81c14.676 0 26.629-11.641 26.629-25.977v-308.07c0-14.329-11.95-25.95-26.63-25.95" fill="#0977b6"/>
    <path d="m80.078 49.559c17.082 0 30.945 13.875 30.945 30.964 0 17.094-13.863 30.965-30.945 30.965-17.148 0-30.976-13.871-30.976-30.965 0-17.089 13.828-30.964 30.976-30.964m-26.738 85.402h53.445v171.8h-53.445v-171.8" fill="#fff"/>
    <path d="m140.28 134.96h51.184v23.484h0.73c7.121-13.504 24.543-27.746 50.52-27.746 54.062 0 64.055 35.571 64.055 81.84v94.219h-53.391v-83.543c0-19.926-0.344-45.555-27.742-45.555-27.785 0-32.024 21.715-32.024 44.125v84.973h-53.332v-171.8" fill="#fff"/>
  </symbol>

  <symbol id="github" viewBox="0 0 178.87 174.45">
    <title>github</title> 

     <path  d="m89.425 0c-49.379 0-89.425 40.04-89.425 89.436 0 39.508 25.623 73.031 61.161 84.863 4.4746 0.81806 6.1052-1.9435 6.1052-4.3153 0-2.1247-0.077-7.7467-0.12065-15.208-24.876 5.4024-30.125-11.991-30.125-11.991-4.0683-10.333-9.9318-13.083-9.9318-13.083-8.1201-5.5451 0.61493-5.4353 0.61493-5.4353 8.9765 0.6314 13.698 9.2181 13.698 9.2181 7.9773 13.665 20.934 9.7177 26.029 7.4283 0.81254-5.7757 3.1239-9.7177 5.6769-11.952-19.858-2.262-40.738-9.9318-40.738-44.202 0-9.7671 3.4863-17.744 9.2071-23.998-0.92236-2.262-3.9914-11.354 0.87842-23.668 0 0 7.5052-2.4047 24.591 9.1632 7.1318-1.982 14.785-2.9702 22.389-3.0086 7.5985 0.0371 15.246 1.0267 22.389 3.0086 17.075-11.568 24.569-9.1632 24.569-9.1632 4.8808 12.315 1.8118 21.406 0.89493 23.668 5.7318 6.2533 9.1906 14.231 9.1906 23.998 0 34.358-20.912 41.918-40.831 44.13 3.2063 2.7616 6.0667 8.2189 6.0667 16.564 0 11.952-0.10994 21.599-0.10994 24.53 0 2.3937 1.6141 5.1773 6.1491 4.3043 35.511-11.853 61.112-45.349 61.112-84.852 0.01-49.395-40.04-89.435-89.435-89.435" fill-rule="evenodd" fill="#1b1817"/>
  </symbol>

  <symbol id="codepen" viewBox="0 0 120 120">
    <path class="outer-ring" d="M60.048 0C26.884 0 0 26.9 0 60.048s26.884 60 60 60.047c33.163 0 60.047-26.883 60.047-60.047 S93.211 0 60 0z M60.048 110.233c-27.673 0-50.186-22.514-50.186-50.186S32.375 9.9 60 9.9 c27.672 0 50.2 22.5 50.2 50.186S87.72 110.2 60 110.233z"/><path class="inner-box" d="M97.147 48.319c-0.007-0.047-0.019-0.092-0.026-0.139c-0.016-0.09-0.032-0.18-0.056-0.268 c-0.014-0.053-0.033-0.104-0.05-0.154c-0.025-0.078-0.051-0.156-0.082-0.232c-0.021-0.053-0.047-0.105-0.071-0.156 c-0.033-0.072-0.068-0.143-0.108-0.211c-0.029-0.051-0.061-0.1-0.091-0.148c-0.043-0.066-0.087-0.131-0.135-0.193 c-0.035-0.047-0.072-0.094-0.109-0.139c-0.051-0.059-0.104-0.117-0.159-0.172c-0.042-0.043-0.083-0.086-0.127-0.125 c-0.059-0.053-0.119-0.104-0.181-0.152c-0.048-0.037-0.095-0.074-0.145-0.109c-0.019-0.012-0.035-0.027-0.053-0.039L61.817 23.5 c-1.072-0.715-2.468-0.715-3.54 0L24.34 46.081c-0.018 0.012-0.034 0.027-0.053 0.039c-0.05 0.035-0.097 0.072-0.144 0.1 c-0.062 0.049-0.123 0.1-0.181 0.152c-0.045 0.039-0.086 0.082-0.128 0.125c-0.056 0.055-0.108 0.113-0.158 0.2 c-0.038 0.045-0.075 0.092-0.11 0.139c-0.047 0.062-0.092 0.127-0.134 0.193c-0.032 0.049-0.062 0.098-0.092 0.1 c-0.039 0.068-0.074 0.139-0.108 0.211c-0.024 0.051-0.05 0.104-0.071 0.156c-0.031 0.076-0.057 0.154-0.082 0.2 c-0.017 0.051-0.035 0.102-0.05 0.154c-0.023 0.088-0.039 0.178-0.056 0.268c-0.008 0.047-0.02 0.092-0.025 0.1 c-0.019 0.137-0.029 0.275-0.029 0.416V71.36c0 0.1 0 0.3 0 0.418c0.006 0 0 0.1 0 0.1 c0.017 0.1 0 0.2 0.1 0.268c0.015 0.1 0 0.1 0.1 0.154c0.025 0.1 0.1 0.2 0.1 0.2 c0.021 0.1 0 0.1 0.1 0.154c0.034 0.1 0.1 0.1 0.1 0.213c0.029 0 0.1 0.1 0.1 0.1 c0.042 0.1 0.1 0.1 0.1 0.193c0.035 0 0.1 0.1 0.1 0.139c0.05 0.1 0.1 0.1 0.2 0.2 c0.042 0 0.1 0.1 0.1 0.125c0.058 0.1 0.1 0.1 0.2 0.152c0.047 0 0.1 0.1 0.1 0.1 c0.019 0 0 0 0.1 0.039L58.277 96.64c0.536 0.4 1.2 0.5 1.8 0.537c0.616 0 1.233-0.18 1.77-0.537 l33.938-22.625c0.018-0.012 0.034-0.027 0.053-0.039c0.05-0.035 0.097-0.072 0.145-0.109c0.062-0.049 0.122-0.1 0.181-0.152 c0.044-0.039 0.085-0.082 0.127-0.125c0.056-0.055 0.108-0.113 0.159-0.172c0.037-0.045 0.074-0.09 0.109-0.139 c0.048-0.062 0.092-0.127 0.135-0.193c0.03-0.049 0.062-0.098 0.091-0.146c0.04-0.07 0.075-0.141 0.108-0.213 c0.024-0.051 0.05-0.102 0.071-0.154c0.031-0.078 0.057-0.156 0.082-0.234c0.017-0.051 0.036-0.102 0.05-0.154 c0.023-0.088 0.04-0.178 0.056-0.268c0.008-0.045 0.02-0.092 0.026-0.137c0.018-0.139 0.028-0.277 0.028-0.418V48.735 C97.176 48.6 97.2 48.5 97.1 48.319z M63.238 32.073l25.001 16.666L77.072 56.21l-13.834-9.254V32.073z M56.856 32.1 v14.883L43.023 56.21l-11.168-7.471L56.856 32.073z M29.301 54.708l7.983 5.34l-7.983 5.34V54.708z M56.856 88.022L31.855 71.4 l11.168-7.469l13.833 9.252V88.022z M60.048 67.597l-11.286-7.549l11.286-7.549l11.285 7.549L60.048 67.597z M63.238 88.022V73.14 l13.834-9.252l11.167 7.469L63.238 88.022z M90.794 65.388l-7.982-5.34l7.982-5.34V65.388z"/>
  </symbol>

</svg>